# xmcd
#
# Track frame offsets:
# 150
# 16273
# 29121
# 43958
# 60036
# 73690
# 89023
# 107739
# 125248
# 143229
# 159744
# 174594
# 192346
# 207307
#
# Disc length: 3001 seconds
#
#
# Revision: 0
# Processed by: cddbd v1.5.2PL0 Copyright (c) Steve Scherf et al.
# Submitted via: FreeRIP 2.945 
#
DISCID=d30bb70e
DTITLE=Leonel Gomez - Pago Lendário
DYEAR=2006
DGENRE=Gaúcha
TTITLE0=La Campana
TTITLE1=Noite Linda dos Touros
TTITLE2=De Mano
TTITLE3=Calavera
TTITLE4=Namoro de Corvo
TTITLE5=Ladrão de Vaca
TTITLE6=Anguriada
TTITLE7=Quisera Ter Sido
TTITLE8=Final de Seca
TTITLE9=Pra Ti, Xirua (Pra Ti Guria)
TTITLE10=Pala
TTITLE11=Alma de Bolicheiro
TTITLE12=Balconero
TTITLE13=China de Tapera
EXTD=
EXTT0=
EXTT1=
EXTT2=
EXTT3=
EXTT4=
EXTT5=
EXTT6=
EXTT7=
EXTT8=
EXTT9=
EXTT10=
EXTT11=
EXTT12=
EXTT13=
PLAYORDER=
